<svg version="1.1" id="Layer_1" xmlns="http://www.w3.org/2000/svg" xmlns:xlink="http://www.w3.org/1999/xlink" x="0px" y="0px"
	 viewBox="0 0 612 792" style="enable-background:new 0 0 612 792;" xml:space="preserve">
  <style type="text/css">
    .st0{fill:none;}
    .st1{fill:url(#SVGID_1_);}
    .st2{fill:url(#SVGID_2_);}
  </style>
  <path class="st0" d="M300.4,404.1c0.1-0.3,0.1-0.6,0.1-0.9c0-0.1,0-0.2-0.1-0.3c-0.4,1.5-0.8,2.6-1.1,3.5L300.4,404.1z"/>
  <path class="st0" d="M298.3,408.5c0.3-0.1,0.6-0.1,0.6-0.1c0.2,0.1,0.5-0.4,0.7-1.2c-0.2,0.1-0.5,0.2-0.8,0.3
    C298.7,407.9,298.5,408.2,298.3,408.5z"/>
  <g>
    
      <image style="overflow:visible;" width="328" height="339" xlink:href="5812C7B.png"  transform="matrix(0.24 0 0 0.24 257.76 364.56)">
    </image>
  </g>
  <g>
    
      <image style="overflow:visible;" width="325" height="328" xlink:href="5812C79.png"  transform="matrix(0.24 0 0 0.24 261.6 343.68)">
    </image>
  </g>
  <g>
    
      <image style="overflow:visible;" width="302" height="306" xlink:href="5812C7F.png"  transform="matrix(0.24 0 0 0.24 273.6 354.24)">
    </image>
  </g>
  <g>
    
      <image style="overflow:visible;" width="334" height="310" xlink:href="5812C78.png"  transform="matrix(0.24 0 0 0.24 265.68 355.68)">
    </image>
  </g>
  <g>
    
      <image style="overflow:visible;" width="368" height="351" xlink:href="5812C76.png"  transform="matrix(0.24 0 0 0.24 257.76 344.16)">
    </image>
  </g>
  <g>
    <g>
      
        <image style="overflow:visible;" width="328" height="310" xlink:href="5812C77.png"  transform="matrix(0.24 0 0 0.24 267.36 370.8)">
      </image>
    </g>
  </g>
  <g>
    
      <image style="overflow:visible;" width="319" height="319" xlink:href="5812C87.png"  transform="matrix(0.24 0 0 0.24 277.92 369.6)">
    </image>
  </g>
  <linearGradient id="SVGID_1_" gradientUnits="userSpaceOnUse" x1="302.5686" y1="406.6669" x2="295.703" y2="404.645">
    <stop  offset="0" style="stop-color:#FFFFFF;stop-opacity:0.7"/>
    <stop  offset="0.1155" style="stop-color:#FFFFFF;stop-opacity:0.5979"/>
    <stop  offset="0.7914" style="stop-color:#FFFFFF;stop-opacity:0"/>
  </linearGradient>
  <path class="st1" d="M298.8,407.5c0.3-0.1,0.6-0.2,0.8-0.3c0.3-0.9,0.6-2.2,0.7-3.2l-1.1,2.4C299.1,406.8,299,407.2,298.8,407.5z"/>
  <g>
    
      <image style="overflow:visible;" width="304" height="306" xlink:href="5812C89.png"  transform="matrix(0.24 0 0 0.24 262.56 370.32)">
    </image>
  </g>
  <linearGradient id="SVGID_2_" gradientUnits="userSpaceOnUse" x1="302.2025" y1="407.9099" x2="295.337" y2="405.888">
    <stop  offset="0" style="stop-color:#FFFFFF;stop-opacity:0.7"/>
    <stop  offset="0.1155" style="stop-color:#FFFFFF;stop-opacity:0.5979"/>
    <stop  offset="0.7914" style="stop-color:#FFFFFF;stop-opacity:0"/>
  </linearGradient>
  <path class="st2" d="M298.8,407.5C298.8,407.5,298.8,407.5,298.8,407.5c0.2-0.3,0.3-0.7,0.5-1.1L298.8,407.5z"/>
  <g>
    
      <image style="overflow:visible;" width="339" height="318" xlink:href="5812C8B.png"  transform="matrix(0.24 0 0 0.24 264.72 353.04)">
    </image>
  </g>
  <g>
    
      <image style="overflow:visible;" width="302" height="303" xlink:href="CBAB6DD8.png"  transform="matrix(0.24 0 0 0.24 263.28 354.48)">
    </image>
  </g>
  <g>
    
      <image style="overflow:visible;" width="345" height="328" xlink:href="CBAB6DDF.png"  transform="matrix(0.24 0 0 0.24 264.24 356.16)">
    </image>
  </g>
  <g>
    
      <image style="overflow:visible;" width="346" height="390" xlink:href="CBAB6DD9.png"  transform="matrix(0.24 0 0 0.24 260.16 353.52)">
    </image>
  </g>
  <g>
    
      <image style="overflow:visible;" width="302" height="304" xlink:href="CBAB6DDB.png"  transform="matrix(0.24 0 0 0.24 269.76 367.2)">
    </image>
  </g>
  <g>
    
      <image style="overflow:visible;" width="344" height="365" xlink:href="CBAB6DC6.png"  transform="matrix(0.24 0 0 0.24 270.72 357.6)">
    </image>
  </g>
  <g>
    <g>
      
        <image style="overflow:visible;" width="344" height="352" xlink:href="CBAB6DC7.png"  transform="matrix(0.24 0 0 0.24 268.32 362.16)">
      </image>
    </g>
  </g>
</svg>

